<svg id="OBJECTS" xmlns="http://www.w3.org/2000/svg" viewBox="0 0 400 400"><defs><style>.cls-1{fill:#4764af;}.cls-2{fill:#ff7f00;}.cls-3{fill:#fff;}.cls-4{opacity:0.5;}</style></defs><path class="cls-1" d="M197.3,172.06H328.24a30.55,30.55,0,0,1,30.46,30.46V336.65l-3.46-3.46C348.16,326.1,338.4,323,328.39,323H197.3a30.55,30.55,0,0,1-30.46-30.47v-90A30.55,30.55,0,0,1,197.3,172.06Z"/><path class="cls-2" d="M202.7,63.35H71.76A30.55,30.55,0,0,0,41.3,93.81V227.94l3.46-3.46c7.08-7.09,16.84-10.23,26.85-10.18H202.7a30.55,30.55,0,0,0,30.46-30.46v-90A30.55,30.55,0,0,0,202.7,63.35Z"/><path class="cls-3" d="M149.5,171.1,146.11,160a1.59,1.59,0,0,0-1.52-1.13H119.53A1.59,1.59,0,0,0,118,160l-3.54,11.61a7.29,7.29,0,0,1-7,5.16H106a7.29,7.29,0,0,1-6.88-9.7l21.58-61.38a6.62,6.62,0,0,1,6.26-4.43h10.1a6.64,6.64,0,0,1,6.26,4.42l21.33,60.46a8,8,0,0,1-7.52,10.63h0A8,8,0,0,1,149.5,171.1Zm-11.9-25.62a3.21,3.21,0,0,0,3.06-4.17c-2.4-7.75-4.84-15.86-6.5-21.42a2.14,2.14,0,0,0-4.1,0c-1.56,5.35-3.89,13.19-6.43,21.47a3.18,3.18,0,0,0,3,4.11Z"/><g class="cls-4"><path class="cls-1" d="M143.88,308h-38.6a13.42,13.42,0,0,1-13.41-13.4V261.87l10.28,10.27a2.92,2.92,0,0,0,4.13-4.12l-15-15a2.92,2.92,0,0,0-4.13,0l-15,15a2.92,2.92,0,0,0,4.13,4.12L86,262.41v32.15a19.26,19.26,0,0,0,19.24,19.24h38.6a2.92,2.92,0,0,0,0-5.84Z"/><path class="cls-1" d="M334.4,137.53a2.92,2.92,0,0,0-4.13,0l-9.72,9.73V115.12A19.27,19.27,0,0,0,301.3,95.88H262.7a2.92,2.92,0,1,0,0,5.83h38.6a13.43,13.43,0,0,1,13.41,13.41v32.69l-10.28-10.28a2.92,2.92,0,0,0-4.13,4.13l15,15a2.93,2.93,0,0,0,4.13,0l15-15A2.92,2.92,0,0,0,334.4,137.53Z"/></g><path class="cls-3" d="M290.85,224.52h-33q.29-4.68.31-9.36c.05-8.27-12.8-8.28-12.85,0,0,3.13-.15,6.25-.35,9.36H225.17c-8.26,0-8.28,12.85,0,12.85h18.14A91.26,91.26,0,0,1,240.8,248a93.12,93.12,0,0,1-15.49,29c-2.11,2.76-.43,7.19,2.3,8.79,3.31,1.94,6.68.46,8.79-2.3a102.9,102.9,0,0,0,16.79-32.06,101.46,101.46,0,0,0,3.14-14h34.52C299.12,237.37,299.13,224.52,290.85,224.52Z"/><path class="cls-3" d="M271.39,261.77c-2.4-2.36-6.72-2.57-9.08,0a6.53,6.53,0,0,0,0,9.08c5.5,5.4,10.58,11.24,16.58,16.11a6.9,6.9,0,0,0,4.54,1.88A6.52,6.52,0,0,0,288,287a6.43,6.43,0,0,0,1.88-4.54,6.27,6.27,0,0,0-1.88-4.55C282,273,276.89,267.17,271.39,261.77Z"/></svg>