<svg xmlns="http://www.w3.org/2000/svg" viewBox="0 0 400 400"><defs><style>.cls-1,.cls-2,.cls-3{fill:#fff;}.cls-1{opacity:0.5;}.cls-2,.cls-4{opacity:0.8;}.cls-4,.cls-5{fill:#ff7f00;}</style></defs><g id="OBJECTS"><path class="cls-1" d="M56.54,39.94H343.46A16.55,16.55,0,0,1,360,56.5V299.28a16.56,16.56,0,0,1-16.56,16.56H56.54A16.56,16.56,0,0,1,40,299.28V56.5A16.55,16.55,0,0,1,56.54,39.94Z"/><path class="cls-2" d="M330.55,128.23a7.38,7.38,0,0,0-5.86,2.88L216.56,271.69h49.65l22.08-27.59v27.59h49.65V135.62A7.39,7.39,0,0,0,330.55,128.23Z"/><path class="cls-2" d="M150.34,271.69h66.22V211l-11.5-33.1H161.84L150.34,211Z"/><path class="cls-2" d="M128.27,238.58H73.09l11-66.21h33.11Z"/><path class="cls-3" d="M82.24,136.51c9.2,0,9.2,5.51,18.39,5.51s9.19-5.51,18.39-5.51,9.21,5.51,18.42,5.51c.21,0,.36,0,.56,0,.27-.9.54-1.78.78-2.72,5.44-22.07-32.66-44.14-38.1-55.18-5.44,11-43.53,33.11-38.1,55.18.24.94.51,1.82.78,2.72.18,0,.32,0,.5,0C73.05,142,73.05,136.51,82.24,136.51Z"/><path class="cls-4" d="M137.44,142c-9.21,0-9.21-5.51-18.42-5.51s-9.2,5.51-18.39,5.51-9.19-5.51-18.39-5.51S73.05,142,63.86,142c-.19,0-.32,0-.5,0a59.72,59.72,0,0,0,21,30.39H117A59.78,59.78,0,0,0,138,142C137.8,142,137.65,142,137.44,142Z"/><path class="cls-5" d="M122.75,222H100.68a5.52,5.52,0,0,1,0-11h22.07a5.52,5.52,0,1,1,0,11Z"/><path class="cls-5" d="M216.56,211A55.25,55.25,0,0,1,200,216.51,55.1,55.1,0,0,1,183.45,211v60.7h33.11Z"/><path class="cls-4" d="M183.44,211a55,55,0,0,1-16.55,5.52A55.1,55.1,0,0,1,150.34,211v60.7h33.1Z"/><path class="cls-4" d="M191.43,138.68a8.93,8.93,0,0,0-16,0l-13.62,39.21h43.21Z"/><path class="cls-5" d="M73.09,238.58h55.18v33.11H73.09Z"/><path class="cls-3" d="M56.54,39.94H343.46A16.55,16.55,0,0,1,360,56.5V62H40V56.5A16.55,16.55,0,0,1,56.54,39.94Z"/><path class="cls-3" d="M40,271.69H360v27.59a16.56,16.56,0,0,1-16.56,16.56H56.54A16.56,16.56,0,0,1,40,299.28Z"/><path class="cls-5" d="M310.35,177.89h27.59v11H310.35Z"/><path class="cls-5" d="M321.39,200h16.55v11H321.39Z"/><path class="cls-5" d="M310.35,222h27.59v11H310.35Z"/><path class="cls-5" d="M321.39,244.1h16.55v11H321.39Z"/><path class="cls-2" d="M155.86,315.84h88.28V337.9H155.86Z"/><path class="cls-3" d="M128.27,337.9H271.73A22.08,22.08,0,0,1,293.8,360H106.2A22.08,22.08,0,0,1,128.27,337.9Z"/><path class="cls-5" d="M166.89,288.25h11v11h-11Z"/><path class="cls-5" d="M189,288.25H211v11H189Z"/><path class="cls-5" d="M222.07,288.25h11v11h-11Z"/><path class="cls-3" d="M337.94,111.67h-11V89.6H271.73v-11h66.21Z"/><path class="cls-3" d="M249.66,78.57h11v11h-11Z"/></g></svg>