<svg xmlns="http://www.w3.org/2000/svg" viewBox="0 0 400 400"><title>ICONE_FORM - seo</title><g id="Ñëîé_1" data-name="Ñëîé 1"><rect x="56.83" y="51.72" width="14.17" height="323.73" style="fill:#ff7f00"/><polygon points="63.89 58.84 41.97 58.84 52.93 39.86 63.89 20.88 74.85 39.86 85.81 58.84 63.89 58.84" style="fill:#ff7f00"/><rect x="80.84" y="70.25" width="14.17" height="305.2" style="fill:#d3d3d3"/><polygon points="87.9 86.41 65.98 86.41 76.94 67.42 87.9 48.44 98.86 67.42 109.82 86.41 87.9 86.41" style="fill:#d3d3d3"/><rect x="109.86" y="30.1" width="19.19" height="345.2" style="fill:#4764af"/><polygon points="118.67 38.51 96.75 38.51 107.71 19.53 118.67 0.54 129.62 19.53 140.58 38.51 118.67 38.51" style="fill:#4764af"/><rect x="135.53" y="91.68" width="14.17" height="283.78" style="fill:#ff7f00"/><rect x="56.83" y="169.03" width="14.17" height="173.99" style="fill:#ff7f00"/><rect x="80.84" y="178.99" width="14.17" height="164.03" style="fill:#d3d3d3"/><rect x="135.53" y="190.51" width="14.17" height="152.51" style="fill:#ff7f00"/><polygon points="142.59 100.21 120.68 100.21 131.64 81.23 142.59 62.24 153.56 81.23 164.51 100.21 142.59 100.21" style="fill:#ff7f00"/><polygon points="244.98 364.54 154.38 364.54 174.82 303.19 224.53 303.19 244.98 364.54" style="fill:#4764af"/><path d="M344.41,122.31H51.77A11.29,11.29,0,0,0,40.48,133.6V316.22a11.3,11.3,0,0,0,11.29,11.3H344.41a11.29,11.29,0,0,0,11.29-11.3V133.6A11.28,11.28,0,0,0,344.41,122.31ZM350.8,299H45.09V143.58a12.81,12.81,0,0,1,12.82-12.81H338a12.81,12.81,0,0,1,12.82,12.81Z" style="fill:#4764af"/><path d="M338,130.77H57.91a12.81,12.81,0,0,0-12.82,12.81V299H350.8V143.58A12.81,12.81,0,0,0,338,130.77Z" style="fill:#4764af"/><path d="M338,130.77H57.91a12.81,12.81,0,0,0-12.82,12.81V299H350.8V143.58A12.81,12.81,0,0,0,338,130.77Z" style="fill:#fff;opacity:0.5"/><circle cx="200.21" cy="313.76" r="10.58" style="fill:#fff"/><circle cx="200.21" cy="313.76" r="8.46" style="fill:#4764af"/><path d="M249.92,370.89H147.32a13.75,13.75,0,0,1,13.75-13.76h75.1a13.75,13.75,0,0,1,13.75,13.76Z" style="fill:#4764af"/><path d="M148,366.65a13.84,13.84,0,0,0-.67,4.24h102.6a13.55,13.55,0,0,0-.68-4.24Z" style="fill:#4764af"/><path d="M104.33,252V235.68a31.4,31.4,0,0,0,9.61,5.57,31.08,31.08,0,0,0,10.48,1.85,22.86,22.86,0,0,0,5.42-.56A12.59,12.59,0,0,0,133.7,241a6.73,6.73,0,0,0,2.32-2.34,5.81,5.81,0,0,0,.76-2.92,6.35,6.35,0,0,0-1.22-3.82,13,13,0,0,0-3.33-3.1,34.89,34.89,0,0,0-5-2.75q-2.89-1.32-6.26-2.69-8.53-3.57-12.74-8.7a19,19,0,0,1-4.2-12.41,19.82,19.82,0,0,1,2.29-9.79,19.52,19.52,0,0,1,6.23-6.74,27.88,27.88,0,0,1,9.13-3.89,47,47,0,0,1,11-1.25,65.86,65.86,0,0,1,10.1.69,39.75,39.75,0,0,1,8.11,2.11V198.6a24,24,0,0,0-4-2.24,30.66,30.66,0,0,0-4.45-1.6,32.7,32.7,0,0,0-4.56-.94,31.06,31.06,0,0,0-4.29-.31,22.8,22.8,0,0,0-5.09.53,13.36,13.36,0,0,0-3.87,1.5,7.57,7.57,0,0,0-2.44,2.32,5.55,5.55,0,0,0-.86,3,5.82,5.82,0,0,0,1,3.28,11.16,11.16,0,0,0,2.75,2.74,28.64,28.64,0,0,0,4.33,2.55c1.69.83,3.61,1.68,5.74,2.56a64,64,0,0,1,7.86,3.9,27.85,27.85,0,0,1,6,4.65,18,18,0,0,1,3.81,5.93,23.56,23.56,0,0,1-1,18,18.72,18.72,0,0,1-6.28,6.71,27,27,0,0,1-9.23,3.69A53.14,53.14,0,0,1,125.13,256a61.73,61.73,0,0,1-11.42-1A34,34,0,0,1,104.33,252Z" style="fill:#ff7f00"/><path d="M218.54,256H170.27V183.08h46.59v13.38H186.7v16.23h28.38V226H186.7V242.7h31.84Z" style="fill:#fff"/><rect x="291.12" y="239.23" width="6.81" height="16.1" transform="translate(-88.59 280.69) rotate(-45)" style="fill:#a4cfea"/><path d="M238.69,244a37.15,37.15,0,1,1,52.55,0A37.2,37.2,0,0,1,238.69,244Zm7.28-7.28a26.86,26.86,0,1,0,0-38A26.88,26.88,0,0,0,246,236.72Z" style="fill:#4764af"/><path d="M329.92,245.42h1a6.89,6.89,0,0,1,6.89,6.89V321a0,0,0,0,1,0,0H323a0,0,0,0,1,0,0V252.31a6.89,6.89,0,0,1,6.89-6.89Z" transform="translate(764.33 249.79) rotate(135)" style="fill:#fff"/><polygon points="297.81 255.39 298.48 261.72 308.95 251.25 302.62 250.57 297.81 255.39" style="fill:#fff;opacity:0.5"/><path d="M275.13,72.25H249.19A6.18,6.18,0,0,0,243,78.43v22.2a6.18,6.18,0,0,0,6.18,6.18h17.27l7.2,6.39v-6.39h1.47a6.18,6.18,0,0,0,6.18-6.18V78.43A6.18,6.18,0,0,0,275.13,72.25Z" style="fill:#4764af;opacity:0.8"/><path d="M272.46,84.15l-.73,3.38h-3.47l-1,4.65h3.89l-.85,3.38h-3.73l-1.47,6.5h-3.75l1.37-6.5h-4.3l-1.39,6.5h-3.75l1.33-6.5h-3.49l.7-3.38h3.52l1-4.65h-3.79l.64-3.38H257l1.39-6.68h3.85l-1.39,6.68h4.3l1.43-6.68h3.81L269,84.15Zm-8,3.38h-4.35l-1,4.65h4.33Z" style="fill:#fff"/><path d="M274.82,27.31H328A12.66,12.66,0,0,1,340.65,40V67.34A12.67,12.67,0,0,1,328,80H292.59L277.83,93.1V80h-3a12.66,12.66,0,0,1-12.66-12.67V40A12.66,12.66,0,0,1,274.82,27.31Z" style="fill:#ff7f00"/><path d="M285.79,53.82a4.7,4.7,0,1,1-4.7-4.69A4.7,4.7,0,0,1,285.79,53.82Z" style="fill:#fff"/><path d="M308.64,53.82a4.7,4.7,0,1,1-4.7-4.69A4.69,4.69,0,0,1,308.64,53.82Z" style="fill:#fff"/><circle cx="326.8" cy="53.82" r="4.7" style="fill:#fff"/></g></svg>