<svg xmlns="http://www.w3.org/2000/svg" viewBox="0 0 400 400"><title>ICONE_FORM - Graphisme</title><g id="Calque_1" data-name="Calque 1"><path d="M307.67,322.27H54.38a14.5,14.5,0,0,1-14.5-14.49V54.48A14.5,14.5,0,0,1,54.38,40H307.67a14.49,14.49,0,0,1,14.49,14.49v253.3A14.49,14.49,0,0,1,307.67,322.27Z" style="fill:#4764af;opacity:0.5"/><path d="M322.16,54.48v253.3a14.49,14.49,0,0,1-14.49,14.49H290.11a14.5,14.5,0,0,0,14.5-14.49V54.48A14.5,14.5,0,0,0,290.11,40h17.56A14.49,14.49,0,0,1,322.16,54.48Z" style="fill:#4764af;opacity:0.8"/><path d="M322.16,89.42H39.88V54.48A14.5,14.5,0,0,1,54.38,40H307.67a14.49,14.49,0,0,1,14.49,14.49Z" style="fill:#4764af"/><path d="M322.16,54.48v35H304.61v-35A14.5,14.5,0,0,0,290.11,40h17.56A14.49,14.49,0,0,1,322.16,54.48Z" style="fill:#121928;opacity:0.5"/><path d="M78.79,135.39v-6.82a6.31,6.31,0,0,1,2.94-5.76,6.12,6.12,0,0,1,2.47-.73,4.78,4.78,0,0,0,4.36-4.71v-.23a4.72,4.72,0,0,0-4.73-4.72h-.26c-5.81.18-14.45,4.64-14.45,16.15v4.25l-4.61,3.1a6.64,6.64,0,0,0-2.78,7,6.81,6.81,0,0,0,2.91,4.11l4.48,3v4.25c0,11.51,8.64,16,14.45,16.15h.16a4.83,4.83,0,0,0,.15-9.66,6.79,6.79,0,0,1-2.57-.85c-1.08-.65-2.52-1.94-2.52-5.64v-6.82a4.84,4.84,0,0,0-2.14-4l-3-2,3-2A4.81,4.81,0,0,0,78.79,135.39Z" style="fill:#ff7f00"/><path d="M154.77,135.92l-4.61-3.1v-4.25c0-11.51-8.64-16-14.45-16.15h-.27a4.72,4.72,0,0,0-4.72,4.72v.23a4.77,4.77,0,0,0,4.36,4.71,6.08,6.08,0,0,1,2.47.73,6.31,6.31,0,0,1,2.94,5.76v6.82a4.81,4.81,0,0,0,2.14,4l3,2-3,2a4.84,4.84,0,0,0-2.14,4v6.82c0,3.7-1.44,5-2.52,5.64a7,7,0,0,1-2.57.85,4.83,4.83,0,0,0,.15,9.66h.16c5.81-.18,14.45-4.64,14.45-16.15v-4.25l4.48-3a6.84,6.84,0,0,0,2.91-4.11A6.64,6.64,0,0,0,154.77,135.92Z" style="fill:#ff7f00"/><path d="M73.53,65.44a9.36,9.36,0,1,1-9.35-9.35A9.35,9.35,0,0,1,73.53,65.44Z" style="fill:#fff"/><path d="M109.64,65.44a9.35,9.35,0,1,1-9.35-9.35A9.35,9.35,0,0,1,109.64,65.44Z" style="fill:#fff;opacity:0.8"/><path d="M145.76,65.44a9.36,9.36,0,1,1-9.36-9.35A9.36,9.36,0,0,1,145.76,65.44Z" style="fill:#fff;opacity:0.5"/><path d="M73.52,65.44A9.34,9.34,0,0,1,57.73,72.2,9.35,9.35,0,0,0,64,56.09h.22A9.34,9.34,0,0,1,73.52,65.44Z" style="fill:#fff;opacity:0.9"/><path d="M134.88,269.28H80.8a9.34,9.34,0,0,1-9.33-9.34v-48a9.34,9.34,0,0,1,9.33-9.34h54.08a9.34,9.34,0,0,1,9.34,9.34v48A9.34,9.34,0,0,1,134.88,269.28Z" style="fill:#fff;opacity:0.5"/><path d="M144.22,211.91v48a9.34,9.34,0,0,1-9.34,9.33H121a9.34,9.34,0,0,0,9.34-9.33v-48a9.34,9.34,0,0,0-9.34-9.34h13.87A9.34,9.34,0,0,1,144.22,211.91Z" style="fill:#fff;opacity:0.8"/><path d="M144.17,260.93a9.33,9.33,0,0,1-5.67,7.62,4.73,4.73,0,0,1-1.08-.72l-29.58-26.18L78.27,267.83a4.79,4.79,0,0,1-1.09.72,9.33,9.33,0,0,1-5.66-7.63c.1-.11.22-.22.34-.33l28.69-25.4L71.86,209.8l-.12-.11a9.32,9.32,0,0,1,6.84-6.85l29.26,25.9,29.27-25.9a9.34,9.34,0,0,1,6.84,6.85.63.63,0,0,1-.12.11l-28.69,25.39,28.69,25.4A3.64,3.64,0,0,1,144.17,260.93Z" style="fill:#fff"/><path d="M189.71,209.54H168.16a4.69,4.69,0,0,1,0-9.38h21.55a4.69,4.69,0,0,1,0,9.38Z" style="fill:#4764af"/><path d="M295.71,209.54H282.34a4.69,4.69,0,0,1,0-9.38h13.37a4.69,4.69,0,0,1,0,9.38Z" style="fill:#4764af"/><path d="M189.71,230.83H168.16a4.69,4.69,0,1,1,0-9.38h21.55a4.69,4.69,0,1,1,0,9.38Z" style="fill:#4764af"/><path d="M185.18,250.43h-17a4.7,4.7,0,0,1,0-9.39h17a4.7,4.7,0,0,1,0,9.39Z" style="fill:#4764af"/><path d="M184.26,271.72h-16.1a4.69,4.69,0,1,1,0-9.38h16.1a4.69,4.69,0,1,1,0,9.38Z" style="fill:#4764af"/><path d="M184.26,132.14h-14a4.69,4.69,0,1,1,0-9.38h14a4.69,4.69,0,1,1,0,9.38Z" style="fill:#4764af"/><path d="M285.7,132.14H200a4.69,4.69,0,1,1,0-9.38h85.7a4.69,4.69,0,1,1,0,9.38Z" style="fill:#4764af"/><path d="M272.68,157.17H241.34a4.69,4.69,0,0,1,0-9.38h31.34a4.69,4.69,0,1,1,0,9.38Z" style="fill:#4764af"/><path d="M225,157.17h-9.77a4.69,4.69,0,0,1,0-9.38H225a4.69,4.69,0,0,1,0,9.38Z" style="fill:#4764af"/><path d="M199.45,157.17H170.22a4.69,4.69,0,1,1,0-9.38h29.23a4.69,4.69,0,0,1,0,9.38Z" style="fill:#4764af"/><path d="M92.53,159.29a4.68,4.68,0,1,1,3.32-1.37A4.72,4.72,0,0,1,92.53,159.29Z" style="fill:#4764af"/><path d="M109.1,159.29a4.68,4.68,0,0,1-.91-.09,4.48,4.48,0,0,1-.88-.27,4.83,4.83,0,0,1-.81-.43,4.49,4.49,0,0,1-.71-.58,4.68,4.68,0,0,1,0-6.64,4.49,4.49,0,0,1,.71-.58,4.19,4.19,0,0,1,.81-.43,4.48,4.48,0,0,1,.88-.27,4.75,4.75,0,0,1,1.84,0,4.6,4.6,0,0,1,.87.27,4.19,4.19,0,0,1,.81.43,5,5,0,0,1,.71.58,4.68,4.68,0,0,1,0,6.64,5,5,0,0,1-.71.58,4.83,4.83,0,0,1-.81.43,4.6,4.6,0,0,1-.87.27A4.88,4.88,0,0,1,109.1,159.29Z" style="fill:#4764af"/><path d="M125.68,159.29a4.69,4.69,0,1,1,.91-9.29,4.48,4.48,0,0,1,.88.27,3.92,3.92,0,0,1,.81.43,4.79,4.79,0,0,1,1.3,1.29,4.92,4.92,0,0,1,.43.82,4.39,4.39,0,0,1,.27.87,4.78,4.78,0,0,1,.09.92,4.71,4.71,0,0,1-1.38,3.32,4.78,4.78,0,0,1-2.4,1.28A4.68,4.68,0,0,1,125.68,159.29Z" style="fill:#4764af"/><path d="M204.77,308.29v22.4A29.32,29.32,0,0,0,234.09,360h2.62A29.32,29.32,0,0,0,266,330.69v-22.4H204.77Z" style="fill:#7d9acc"/><polygon points="204.77 256.38 204.77 256.57 255.17 256.57 266.03 256.57 266.03 256.38 255.17 256.38 204.77 256.38" style="fill:#fff;opacity:0.4"/><path d="M255.17,204.66h-46.5a3.91,3.91,0,0,0-3.9,3.91v47.81h50.4Z" style="fill:#fff;opacity:0.4"/><path d="M255.17,204.66h-46.5a3.91,3.91,0,0,0-3.9,3.91v47.81h50.4Z" style="fill:#fff;opacity:0.7000000000000001"/><path d="M266,208.57a3.91,3.91,0,0,0-3.91-3.91h0A3.91,3.91,0,0,1,266,208.57Z" style="fill:#fff;opacity:0.8"/><path d="M262.12,204.66h-7v51.72H266V208.57A3.91,3.91,0,0,0,262.12,204.66Z" style="fill:#fff;opacity:0.4"/><path d="M262.12,204.66h-7v51.72H266V208.57A3.91,3.91,0,0,0,262.12,204.66Z" style="fill:#fff;opacity:0.7000000000000001"/><path d="M262.12,204.66h-7v51.72H266V208.57A3.91,3.91,0,0,0,262.12,204.66Z" style="fill:#fff;opacity:0.2"/><rect x="204.77" y="256.57" height="51.72" style="fill:#fff;opacity:0.5"/><rect x="204.77" y="256.57" width="50.4" height="51.72" style="fill:#fff;opacity:0.4"/><rect x="204.77" y="256.57" width="50.4" height="51.72" style="fill:#fff;opacity:0.5"/><rect x="255.17" y="256.57" width="10.86" height="51.72" style="fill:#fff;opacity:0.4"/><rect x="255.17" y="256.57" width="10.86" height="51.72" style="fill:#fff;opacity:0.5"/><rect x="255.17" y="256.57" width="10.86" height="51.72" style="fill:#fff;opacity:0.4"/><path d="M343,259.54l-37.8-37.79a3.89,3.89,0,0,0-5.52,0l-33.94,33.94L309.08,299l-36.57,36.57L229.2,292.26,213.35,308.1a29.34,29.34,0,0,0,0,41.47l1.86,1.85a29.31,29.31,0,0,0,41.46,0L343,265.07A3.92,3.92,0,0,0,343,259.54Z" style="fill:#fff"/><rect x="221.62" y="273.98" width="51.72" transform="translate(-121.25 255.23) rotate(-45)" style="fill:#fff"/><rect x="243.28" y="265.01" width="51.72" height="61.26" transform="translate(-130.22 276.89) rotate(-45)" style="fill:#fff"/><rect x="243.28" y="265.01" width="51.72" height="61.26" transform="translate(-130.22 276.89) rotate(-45)" style="fill:#fff"/><path d="M272.51,335.58,229.2,292.26,213.35,308.1a29.34,29.34,0,0,0,0,41.47l1.86,1.85a29.31,29.31,0,0,0,41.46,0Z" style="fill:#ff7f00"/><rect x="221.62" y="273.98" width="51.72" transform="translate(-121.25 255.23) rotate(-45)" style="fill:#ff7f00"/><rect x="243.28" y="265.01" width="51.72" height="61.26" transform="translate(-130.22 276.89) rotate(-45)" style="fill:#ff7f00;opacity:0.7000000000000001"/><path d="M309.22,298.87,265.9,255.56l33.81-33.81a3.89,3.89,0,0,1,5.52,0L343,259.54a3.92,3.92,0,0,1,0,5.53Z" style="fill:#ff7f00;opacity:0.4"/><path d="M309.22,298.87l-7.68-7.67,36.57-36.57,4.92,4.91a3.92,3.92,0,0,1,0,5.53Z" style="fill:#ff7f00;opacity:0.2"/><path d="M301.4,291.33l7.68,7.68-36.57,36.57-7.68-7.68Z" style="fill:#ff7f00;opacity:0.4"/><path d="M308.4,360V298.75h47.81a3.91,3.91,0,0,1,3.91,3.9V356.1a3.91,3.91,0,0,1-3.91,3.91Z" style="fill:#fff"/><path d="M234.08,298.75a29.31,29.31,0,0,0-29.31,29.32v2.62A29.32,29.32,0,0,0,234.08,360h22.41V298.75Z" style="fill:#fff"/><path d="M356.21,298.75h-48V360h48a3.91,3.91,0,0,0,3.91-3.91V302.65A3.91,3.91,0,0,0,356.21,298.75Z" style="fill:#4764af;opacity:0.4"/><rect x="256.49" y="298.75" width="51.72" height="61.26" style="fill:#fff"/><path d="M234.08,298.75a29.31,29.31,0,0,0-29.31,29.32v2.62A29.32,29.32,0,0,0,234.08,360h22.41V298.75Z" style="fill:#4764af"/><rect x="256.49" y="298.75" width="51.72" height="61.26" style="fill:#4764af;opacity:0.7000000000000001"/><path d="M308.4,360V349.15h51.72v7a3.91,3.91,0,0,1-3.91,3.91Z" style="fill:#4764af;opacity:0.2"/><path d="M256.49,349.15h51.72V360H256.49Z" style="fill:#4764af;opacity:0.5"/><path d="M240.17,329.38A10.14,10.14,0,1,1,230,319.24,10.14,10.14,0,0,1,240.17,329.38Z" style="fill:#ff7f00"/></g></svg>