<svg xmlns="http://www.w3.org/2000/svg" viewBox="0 0 400 400"><title>ICONE_FORM - Graphisme2</title><g id="Calque_1" data-name="Calque 1"><path d="M155.13,300.85h89.32v40.44H155.13Z" style="fill:#4764af;opacity:0.8"/><path d="M343.06,306.28H56.53a16.39,16.39,0,0,1-16.39-16.39V56.68A16.39,16.39,0,0,1,56.53,40.29H343.06a16.39,16.39,0,0,1,16.39,16.39V289.89A16.39,16.39,0,0,1,343.06,306.28Z" style="fill:#4764af;opacity:0.5"/><path d="M359.45,266.79H40.14v23.1a16.39,16.39,0,0,0,16.39,16.39H343.06a16.39,16.39,0,0,0,16.39-16.39Z" style="fill:#4764af"/><path d="M359.81,96.21H40.49V56.68A16.39,16.39,0,0,1,56.88,40.29H343.42a16.39,16.39,0,0,1,16.39,16.39Z" style="fill:#4764af"/><path d="M360,56.39V95.92H339.61V56.39A16.39,16.39,0,0,0,323.22,40h20.39A16.39,16.39,0,0,1,360,56.39Z" style="fill:#4764af"/><path d="M80.19,68.12a9.33,9.33,0,1,1-9.33-9.33A9.33,9.33,0,0,1,80.19,68.12Z" style="fill:#ff7f00"/><path d="M116.2,68.12a9.33,9.33,0,1,1-9.33-9.33A9.33,9.33,0,0,1,116.2,68.12Z" style="fill:#ff7f00;opacity:0.8"/><path d="M152.21,68.12a9.33,9.33,0,1,1-9.33-9.33A9.33,9.33,0,0,1,152.21,68.12Z" style="fill:#ff7f00;opacity:0.5"/><path d="M273.4,359.61H126.19A3.22,3.22,0,0,1,123,356.4V346a12.79,12.79,0,0,1,12.79-12.79H263.83A12.79,12.79,0,0,1,276.61,346V356.4A3.21,3.21,0,0,1,273.4,359.61Z" style="fill:#4764af"/><path d="M74.45,123.45H61.63a4.82,4.82,0,1,1,0-9.64H74.45a4.82,4.82,0,0,1,0,9.64Z" style="fill:#fff"/><path d="M105.33,123.45H90.73a4.82,4.82,0,1,1,0-9.64h14.6a4.82,4.82,0,1,1,0,9.64Z" style="fill:#fff"/><path d="M133.56,144.66H95.69a4.82,4.82,0,0,1,0-9.64h37.87a4.82,4.82,0,0,1,0,9.64Z" style="fill:#fff"/><path d="M80.19,144.66H61.63a4.82,4.82,0,0,1,0-9.64H80.19a4.82,4.82,0,1,1,0,9.64Z" style="fill:#fff"/><path d="M257.7,273.82h-60v12.53a9.41,9.41,0,0,0,9.41,9.41h.22a9.41,9.41,0,0,1,9.41,9.4v37.68a11,11,0,0,0,21.94,0V305.16a9.4,9.4,0,0,1,9.4-9.4h.22a9.41,9.41,0,0,0,9.41-9.41V273.82Z" style="fill:#fff"/><path d="M161.75,244.78h-.38a9,9,0,0,1-9-9V208a9,9,0,0,1,9-9h.38a9,9,0,0,1,9,9v27.77A9,9,0,0,1,161.75,244.78Z" style="fill:#ff7f00"/><path d="M332.47,211.08h-.38a9,9,0,0,1-9-9V174.34a9,9,0,0,1,9-9h.38a9,9,0,0,1,9,9v27.77A9,9,0,0,1,332.47,211.08Z" style="fill:#ff7f00"/><path d="M170.73,208v27.77a9,9,0,0,1-9,9h-.37a9,9,0,0,1-4.23-1.05,9,9,0,0,0,4.74-7.92V208a9,9,0,0,0-4.74-7.92,8.87,8.87,0,0,1,4.23-1.05h.37A9,9,0,0,1,170.73,208Z" style="fill:#ff7f00"/><path d="M341.44,174.34v27.77a9,9,0,0,1-9,9h-.38a9,9,0,0,1-4.22-1.05,9,9,0,0,0,4.74-7.92V174.34a9,9,0,0,0-4.74-7.91,8.86,8.86,0,0,1,4.22-1.06h.38A9,9,0,0,1,341.44,174.34Z" style="fill:#ff7f00"/><path d="M149.39,96.21v67.38a13.28,13.28,0,1,0,26.55,0v-17a10.88,10.88,0,0,1,21.75,0v87.19h60V170.48a10.38,10.38,0,1,1,20.76,0v9.08a12.49,12.49,0,1,0,25,0V96.21Z" style="fill:#ff7f00"/><path d="M303.44,96.21v83.35a12.49,12.49,0,0,1-17.79,11.31,12.51,12.51,0,0,0,7.19-11.31V96.21Z" style="fill:#ff7f00"/><path d="M197.69,233.61h60V274h-60Z" style="fill:#e2e2e2"/></g></svg>