<svg id="OBJECTS" xmlns="http://www.w3.org/2000/svg" viewBox="0 0 400 400"><defs><style>.cls-1,.cls-3{fill:#fff;}.cls-1,.cls-6{opacity:0.5;}.cls-2,.cls-5,.cls-6{fill:#ff7f00;}.cls-4{fill:#4764af;}.cls-5{opacity:0.8;}</style></defs><path class="cls-1" d="M321.59,251.41H88.88a10.81,10.81,0,0,1-10.82-10.82V51.17A10.82,10.82,0,0,1,88.88,40.35H310.77a10.83,10.83,0,0,1,10.82,10.82Z"/><path class="cls-2" d="M289.12,341.89a16.29,16.29,0,0,0-13.49-16A75,75,0,0,1,246,313.62a16.4,16.4,0,0,0-9.41-3,16,16,0,0,0-11.32,4.61,16.29,16.29,0,0,0,1.62-20.72,74.86,74.86,0,0,1-12.28-29.62,16.3,16.3,0,0,0-16-13.52,16.28,16.28,0,0,0,16-13.48,74.85,74.85,0,0,1,12.29-29.64,16.3,16.3,0,0,0-1.62-20.72,16.1,16.1,0,0,0,11.3,4.61,16.38,16.38,0,0,0,9.42-3,74.85,74.85,0,0,1,29.63-12.28,16.29,16.29,0,0,0,13.48-16,16.29,16.29,0,0,0,13.49,16,74.82,74.82,0,0,1,29.64,12.29,16.41,16.41,0,0,0,9.41,3A16.06,16.06,0,0,0,353,187.55a16.3,16.3,0,0,0-1.62,20.73,74.8,74.8,0,0,1,12.28,29.62,16.3,16.3,0,0,0,16,13.51,16.3,16.3,0,0,0-16,13.49,74.82,74.82,0,0,1-12.29,29.64A16.3,16.3,0,0,0,353,315.25a16,16,0,0,0-11.3-4.59,16.43,16.43,0,0,0-9.41,3,74.86,74.86,0,0,1-29.63,12.29A16.29,16.29,0,0,0,289.12,341.89Z"/><path class="cls-3" d="M321.59,51.17V83.64H78.06V51.17A10.85,10.85,0,0,1,88.88,40.35H310.77A10.85,10.85,0,0,1,321.59,51.17Z"/><path class="cls-3" d="M386.53,240.59H379.6a5.45,5.45,0,0,1-5.33-4.58,86,86,0,0,0-14.08-33.9,5.46,5.46,0,0,1,.55-7l4.9-4.91a5.4,5.4,0,0,0,0-7.65L358,174.86a5.4,5.4,0,0,0-7.65,0l-4.92,4.91a5.46,5.46,0,0,1-7,.54,85.87,85.87,0,0,0-33.9-14.07,5.47,5.47,0,0,1-4.55-5.3V154a5.41,5.41,0,0,0-5.41-5.41H283.71A5.41,5.41,0,0,0,278.3,154v6.94a5.47,5.47,0,0,1-4.59,5.33,86.06,86.06,0,0,0-33.89,14.07,5.48,5.48,0,0,1-7-.54l-4.91-4.91a5.41,5.41,0,0,0-7.65,0l-7.66,7.65a5.41,5.41,0,0,0,0,7.65l4.91,4.92a5.45,5.45,0,0,1,.54,7A86.16,86.16,0,0,0,203.94,236a5.45,5.45,0,0,1-5.33,4.58h-6.9a5.42,5.42,0,0,0-5.42,5.41v10.83a5.42,5.42,0,0,0,5.42,5.41h6.93a5.45,5.45,0,0,1,5.33,4.58A86.16,86.16,0,0,0,218,300.75a5.44,5.44,0,0,1-.54,7l-4.91,4.92a5.41,5.41,0,0,0,0,7.65l7.65,7.65a5.4,5.4,0,0,0,7.65,0l4.92-4.91a5.48,5.48,0,0,1,7-.54,85.91,85.91,0,0,0,33.89,14.07,5.46,5.46,0,0,1,4.58,5.33v6.88a5.41,5.41,0,0,0,5.41,5.41h10.83a5.41,5.41,0,0,0,5.41-5.41v-6.94a5.45,5.45,0,0,1,4.58-5.33,86.16,86.16,0,0,0,33.9-14.07,5.44,5.44,0,0,1,7,.54l4.92,4.91a5.41,5.41,0,0,0,7.65,0l7.65-7.66a5.41,5.41,0,0,0,0-7.65l-4.91-4.91a5.48,5.48,0,0,1-.54-7,86.06,86.06,0,0,0,14.07-33.89,5.45,5.45,0,0,1,5.28-4.55h6.93a5.42,5.42,0,0,0,5.41-5.42V246A5.41,5.41,0,0,0,386.53,240.59Zm-97.41,75.77a64.95,64.95,0,1,1,64.94-65A64.94,64.94,0,0,1,289.12,316.36Z"/><circle class="cls-2" cx="289.12" cy="251.41" r="64.94" transform="translate(-93.09 278.08) rotate(-45)"/><circle class="cls-1" cx="289.12" cy="251.41" r="64.94" transform="translate(-93.09 278.08) rotate(-45)"/><path class="cls-2" d="M299.94,251.41a10.82,10.82,0,1,1-10.82-10.82A10.82,10.82,0,0,1,299.94,251.41Z"/><path class="cls-3" d="M327,235.85a5.39,5.39,0,0,1-4.73-2.78,38.08,38.08,0,0,0-23.69-18.35,5.41,5.41,0,1,1,2.71-10.48,48.94,48.94,0,0,1,30.44,23.58,5.41,5.41,0,0,1-4.73,8Z"/><path class="cls-3" d="M255.32,283.88a5.35,5.35,0,0,1-4.22-2A48.25,48.25,0,0,1,242,263.58a5.41,5.41,0,0,1,10.48-2.7,37.65,37.65,0,0,0,7.11,14.2,5.4,5.4,0,0,1-4.22,8.8Z"/><path class="cls-3" d="M289.12,300.12a48.69,48.69,0,0,1-23.6-6.09,5.41,5.41,0,0,1,5.25-9.47,37.86,37.86,0,0,0,18.35,4.74,5.41,5.41,0,0,1,0,10.82Z"/><path class="cls-3" d="M175.47,316.36a27.06,27.06,0,1,1-27.06-27.06A27.05,27.05,0,0,1,175.47,316.36Z"/><path class="cls-4" d="M153.82,316.36a5.41,5.41,0,1,1-5.41-5.42A5.41,5.41,0,0,1,153.82,316.36Z"/><path class="cls-2" d="M105.12,62a5.42,5.42,0,1,1-5.42-5.41A5.42,5.42,0,0,1,105.12,62Z"/><path class="cls-5" d="M126.76,62a5.41,5.41,0,1,1-5.41-5.41A5.41,5.41,0,0,1,126.76,62Z"/><path class="cls-6" d="M148.41,62A5.41,5.41,0,1,1,143,56.59,5.41,5.41,0,0,1,148.41,62Z"/><path class="cls-3" d="M148.41,294.71A5.41,5.41,0,0,1,143,289.3V278.47a5.41,5.41,0,1,1,10.82,0V289.3A5.41,5.41,0,0,1,148.41,294.71Z"/><path class="cls-3" d="M129.27,302.63a5.41,5.41,0,0,1-3.82-1.58l-7.65-7.66a5.41,5.41,0,1,1,7.65-7.65l7.65,7.65a5.41,5.41,0,0,1-3.83,9.24Z"/><path class="cls-3" d="M121.35,321.77H110.53a5.42,5.42,0,0,1,0-10.83h10.82a5.42,5.42,0,0,1,0,10.83Z"/><path class="cls-3" d="M121.62,348.56a5.41,5.41,0,0,1-3.82-9.24l7.65-7.66a5.41,5.41,0,0,1,7.65,7.66L125.45,347A5.4,5.4,0,0,1,121.62,348.56Z"/><path class="cls-3" d="M148.41,359.65a5.41,5.41,0,0,1-5.41-5.41V343.41a5.41,5.41,0,0,1,10.82,0v10.83A5.41,5.41,0,0,1,148.41,359.65Z"/><path class="cls-3" d="M175.2,348.56a5.4,5.4,0,0,1-3.83-1.59l-7.65-7.65a5.41,5.41,0,0,1,7.65-7.66l7.66,7.66a5.42,5.42,0,0,1-3.83,9.24Z"/><path class="cls-3" d="M186.29,321.77H175.47a5.42,5.42,0,0,1,0-10.83h10.82a5.42,5.42,0,1,1,0,10.83Z"/><path class="cls-3" d="M167.55,302.63a5.41,5.41,0,0,1-3.83-9.24l7.65-7.65a5.41,5.41,0,1,1,7.66,7.65l-7.66,7.66A5.41,5.41,0,0,1,167.55,302.63Z"/><path class="cls-3" d="M110.53,110.7H143a5.42,5.42,0,0,1,5.41,5.42v32.47A5.41,5.41,0,0,1,143,154H110.53a5.41,5.41,0,0,1-5.41-5.41V116.12A5.42,5.42,0,0,1,110.53,110.7Z"/><path class="cls-3" d="M294.53,116.12H164.65a5.42,5.42,0,1,1,0-10.83H294.53a5.42,5.42,0,0,1,0,10.83Z"/><path class="cls-3" d="M186.29,181.06H105.12a5.42,5.42,0,1,1,0-10.83h81.17a5.42,5.42,0,1,1,0,10.83Z"/><path class="cls-3" d="M175.47,202.71H105.12a5.42,5.42,0,1,1,0-10.83h70.35a5.42,5.42,0,0,1,0,10.83Z"/><path class="cls-3" d="M164.65,224.35H105.12a5.41,5.41,0,1,1,0-10.82h59.53a5.41,5.41,0,1,1,0,10.82Z"/><path class="cls-3" d="M207.94,159.41H164.65a5.41,5.41,0,1,1,0-10.82h43.29a5.41,5.41,0,0,1,0,10.82Z"/><path class="cls-3" d="M267.47,137.76H164.65a5.41,5.41,0,1,1,0-10.82H267.47a5.41,5.41,0,0,1,0,10.82Z"/></svg>